<?xml version="1.0" encoding="UTF-8"?>
<svg version="1.1" xmlns="http://www.w3.org/2000/svg" width="117" height="116">
<path d="M0 0 C1.26263672 -0.00580078 1.26263672 -0.00580078 2.55078125 -0.01171875 C6.66268987 -0.0052433 10.49018972 0.08968013 14.5 1.125 C14.5 1.785 14.5 2.445 14.5 3.125 C15.82 3.455 17.14 3.785 18.5 4.125 C18.5 4.785 18.5 5.445 18.5 6.125 C24.11 6.455 29.72 6.785 35.5 7.125 C35.5 7.785 35.5 8.445 35.5 9.125 C37.15 9.125 38.8 9.125 40.5 9.125 C40.995 11.105 40.995 11.105 41.5 13.125 C42.16 13.125 42.82 13.125 43.5 13.125 C43.5 17.745 43.5 22.365 43.5 27.125 C44.82 27.125 46.14 27.125 47.5 27.125 C47.5 27.785 47.5 28.445 47.5 29.125 C49.15 28.795 50.8 28.465 52.5 28.125 C52.5 28.785 52.5 29.445 52.5 30.125 C54.48 30.62 54.48 30.62 56.5 31.125 C56.5 32.775 56.5 34.425 56.5 36.125 C57.16 36.125 57.82 36.125 58.5 36.125 C58.5 51.635 58.5 67.145 58.5 83.125 C57.84 83.125 57.18 83.125 56.5 83.125 C56.5 84.775 56.5 86.425 56.5 88.125 C55.18 88.455 53.86 88.785 52.5 89.125 C52.5 89.785 52.5 90.445 52.5 91.125 C50.52 90.795 48.54 90.465 46.5 90.125 C46.5 90.785 46.5 91.445 46.5 92.125 C45.51 92.125 44.52 92.125 43.5 92.125 C43.5 96.745 43.5 101.365 43.5 106.125 C42.84 106.125 42.18 106.125 41.5 106.125 C41.5 107.115 41.5 108.105 41.5 109.125 C37.045 109.62 37.045 109.62 32.5 110.125 C32.5 110.785 32.5 111.445 32.5 112.125 C27.88 112.125 23.26 112.125 18.5 112.125 C18.005 114.105 18.005 114.105 17.5 116.125 C12.85526018 116.19916067 8.21086501 116.25360615 3.56567383 116.28979492 C1.98553464 116.30488094 0.40543731 116.3253525 -1.17456055 116.35131836 C-3.44590585 116.38771126 -5.71669759 116.40472762 -7.98828125 116.41796875 C-9.04780754 116.44119453 -9.04780754 116.44119453 -10.1287384 116.46488953 C-15.09242315 116.46659249 -15.09242315 116.46659249 -17.2734375 114.63867188 C-17.67820313 114.13916016 -18.08296875 113.63964844 -18.5 113.125 C-21.69245998 112.54407008 -21.69245998 112.54407008 -25.1875 112.4375 C-26.36699219 112.37175781 -27.54648437 112.30601563 -28.76171875 112.23828125 C-29.66535156 112.20089844 -30.56898437 112.16351563 -31.5 112.125 C-31.5 111.465 -31.5 110.805 -31.5 110.125 C-34.47 109.795 -37.44 109.465 -40.5 109.125 C-41.78317892 105.27546324 -41.56643637 102.17761865 -41.5 98.125 C-42.16 98.125 -42.82 98.125 -43.5 98.125 C-43.995 95.155 -43.995 95.155 -44.5 92.125 C-46.48 91.795 -48.46 91.465 -50.5 91.125 C-50.5 90.465 -50.5 89.805 -50.5 89.125 C-52.15 88.795 -53.8 88.465 -55.5 88.125 C-56.78317892 84.27546324 -56.56643637 81.17761865 -56.5 77.125 C-57.16 77.125 -57.82 77.125 -58.5 77.125 C-58.5 74.155 -58.5 71.185 -58.5 68.125 C-57.84 68.125 -57.18 68.125 -56.5 68.125 C-56.5 61.525 -56.5 54.925 -56.5 48.125 C-57.16 48.125 -57.82 48.125 -58.5 48.125 C-58.5 46.805 -58.5 45.485 -58.5 44.125 C-57.84 44.125 -57.18 44.125 -56.5 44.125 C-56.51160156 43.43792969 -56.52320313 42.75085937 -56.53515625 42.04296875 C-56.54417969 41.14191406 -56.55320313 40.24085937 -56.5625 39.3125 C-56.57410156 38.41917969 -56.58570313 37.52585938 -56.59765625 36.60546875 C-56.48473203 33.73719358 -55.93020492 31.75898619 -54.3125 29.375 C-52.5 28.125 -52.5 28.125 -49.3125 28.4375 C-48.384375 28.664375 -47.45625 28.89125 -46.5 29.125 C-46.5 28.465 -46.5 27.805 -46.5 27.125 C-45.51 27.125 -44.52 27.125 -43.5 27.125 C-43.5 25.145 -43.5 23.165 -43.5 21.125 C-42.84 21.125 -42.18 21.125 -41.5 21.125 C-41.55220703 20.20267578 -41.55220703 20.20267578 -41.60546875 19.26171875 C-41.63253906 18.45347656 -41.65960938 17.64523438 -41.6875 16.8125 C-41.73970703 15.61173828 -41.73970703 15.61173828 -41.79296875 14.38671875 C-41.5 12.125 -41.5 12.125 -40.23828125 10.33203125 C-38.5 9.125 -38.5 9.125 -34.5 9.125 C-34.5 8.465 -34.5 7.805 -34.5 7.125 C-33.39140625 7.11082031 -32.2828125 7.09664063 -31.140625 7.08203125 C-29.67704216 7.03512154 -28.21350177 6.98687419 -26.75 6.9375 C-26.02039062 6.93169922 -25.29078125 6.92589844 -24.5390625 6.91992188 C-22.08471555 6.86916878 -22.08471555 6.86916878 -18.5 6.125 C-16.27795314 3.70184663 -16.27795314 3.70184663 -14.5 1.125 C-10.01159673 -0.55002006 -4.74741481 -0.02181048 0 0 Z " fill="#F9FFBE" transform="translate(58.5,-0.125)"/>
<path d="M0 0 C0.99 0 1.98 0 3 0 C3.6483289 2.22844214 4.29356369 4.4577846 4.9375 6.6875 C5.47697266 8.54955078 5.47697266 8.54955078 6.02734375 10.44921875 C6.80726431 13.29639862 7.47287216 16.09802254 8 19 C11.09171206 18.4062191 12.9608041 17.49207998 15.3828125 15.49609375 C16.29740234 14.75649414 16.29740234 14.75649414 17.23046875 14.00195312 C17.85566406 13.48568359 18.48085937 12.96941406 19.125 12.4375 C25.74163569 7 25.74163569 7 28 7 C27.67 9.31 27.34 11.62 27 14 C26.34 14 25.68 14 25 14 C24.96261719 14.56847656 24.92523438 15.13695312 24.88671875 15.72265625 C24.82097656 16.49480469 24.75523438 17.26695313 24.6875 18.0625 C24.62949219 18.81660156 24.57148437 19.57070313 24.51171875 20.34765625 C24 23 24 23 21 30 C28.92 30 36.84 30 45 30 C45 30.66 45 31.32 45 32 C44.27554688 32.37511719 43.55109375 32.75023437 42.8046875 33.13671875 C37.33957901 36.02958284 32.65015986 38.94601448 28 43 C27.34 43 26.68 43 26 43 C31.82206885 48.98841367 37.66504989 53.10081083 45 57 C45 57.66 45 58.32 45 59 C37.41 59 29.82 59 22 59 C23.26958304 63.71178442 23.26958304 63.71178442 24.54272461 68.42260742 C25.48322564 71.93112638 26.34101667 75.42761668 27 79 C27.66 79 28.32 79 29 79 C29 79.99 29 80.98 29 82 C24.10749069 80.45303515 20.70742659 77.58210778 16.8125 74.375 C12.85581304 70.59046737 12.85581304 70.59046737 8 69 C7.81824219 69.99580078 7.81824219 69.99580078 7.6328125 71.01171875 C6.77025477 75.5567345 5.88690272 79.75446889 4 84 C3.32204472 85.99620166 2.65266469 87.99538701 2 90 C1.01 90 0.02 90 -1 90 C-2.26305335 84.92523206 -3.27036084 80.27203646 -3 75 C-3.66 75 -4.32 75 -5 75 C-5.495 71.535 -5.495 71.535 -6 68 C-12.1124611 71.98702 -12.1124611 71.98702 -17.9375 76.375 C-20 78 -20 78 -22 78 C-22 78.66 -22 79.32 -22 80 C-23.98 80.495 -23.98 80.495 -26 81 C-25.86722656 80.47921875 -25.73445313 79.9584375 -25.59765625 79.421875 C-24.8449883 76.37184799 -24.14166329 73.31157953 -23.4375 70.25 C-23.16808594 69.07953125 -22.89867188 67.9090625 -22.62109375 66.703125 C-22.41613281 65.81109375 -22.21117188 64.9190625 -22 64 C-21.34 64 -20.68 64 -20 64 C-20 62.35 -20 60.7 -20 59 C-27.59 59 -35.18 59 -43 59 C-43 58.34 -43 57.68 -43 57 C-41.15317545 55.63918191 -39.24529085 54.36068052 -37.3125 53.125 C-29.70450484 48.81765132 -29.70450484 48.81765132 -25 42 C-25.56203125 41.89558594 -26.1240625 41.79117188 -26.703125 41.68359375 C-29.42380471 40.87386765 -31.39257807 39.63796662 -33.75 38.0625 C-34.54921875 37.53785156 -35.3484375 37.01320312 -36.171875 36.47265625 C-36.77515625 35.98667969 -37.3784375 35.50070313 -38 35 C-38 34.34 -38 33.68 -38 33 C-39.32 32.67 -40.64 32.34 -42 32 C-42 31.34 -42 30.68 -42 30 C-34.41 30 -26.82 30 -19 30 C-19.78375 27.81375 -20.5675 25.6275 -21.375 23.375 C-22.25557535 20.91865824 -23.13070871 18.46035778 -24 16 C-24.38414063 14.91976563 -24.76828125 13.83953125 -25.1640625 12.7265625 C-26 10 -26 10 -26 7 C-22.17716957 7.54611863 -20.58920048 9.23818615 -18 12 C-17.34 12.33 -16.68 12.66 -16 13 C-16 13.66 -16 14.32 -16 15 C-15.46375 15.2475 -14.9275 15.495 -14.375 15.75 C-11.43575748 17.29696975 -8.74245592 19.13014369 -6 21 C-5.814375 19.1746875 -5.814375 19.1746875 -5.625 17.3125 C-5.20584422 13.91135026 -4.36455587 11.15553546 -3 8 C-2.63128912 6.34080104 -2.28718326 4.6752357 -2 3 C-1.34 3 -0.68 3 0 3 C0 2.01 0 1.02 0 0 Z " fill="#FEFE6E" transform="translate(58,15)"/>
<path d="M0 0 C-0.33 2.31 -0.66 4.62 -1 7 C-1.66 6.01 -2.32 5.02 -3 4 C-4.32 4.33 -5.64 4.66 -7 5 C-2.25 0 -2.25 0 0 0 Z " fill="#FDFE82" transform="translate(86,22)"/>
</svg>
